<svg width="107" height="107" viewBox="0 0 107 107" fill="none" xmlns="http://www.w3.org/2000/svg">
<path fill-rule="evenodd" clip-rule="evenodd" d="M0 3.86356H3.86356V0H0V3.86356ZM20.6056 24.4694H24.4692V20.6059H20.6056V24.4694ZM61.817 65.6811H65.6806V61.8176H61.817V65.6811ZM3.86356 106.892H0V103.028H3.86356V106.892ZM20.6056 106.892H24.4692V103.028H20.6056V106.892ZM65.6806 106.892H61.817V103.028H65.6806V106.892ZM106.892 106.892H103.028V103.028H106.892V106.892ZM86.2862 106.892H82.4226V103.028H86.2862V106.892ZM41.2115 106.892H45.075V103.028H41.2115V106.892ZM24.4692 65.6811H20.6056V61.8176H24.4692V65.6811ZM41.2115 65.6811H45.075V61.8176H41.2115V65.6811ZM3.86356 65.6811H0V61.8176H3.86356V65.6811ZM3.86356 24.4694H0V20.6059H3.86356V24.4694ZM61.817 86.2865H65.6806V82.4229H61.817V86.2865ZM24.4692 86.2865H20.6056V82.4229H24.4692V86.2865ZM82.4226 86.2865H86.2862V82.4229H82.4226V86.2865ZM45.075 86.2865H41.2115V82.4229H45.075V86.2865ZM0 86.2865H3.86356V82.4229H0V86.2865ZM24.4692 45.0747H20.6056V41.2112H24.4692V45.0747ZM41.2115 45.0747H45.075V41.2112H41.2115V45.0747ZM3.86356 45.0747H0V41.2112H3.86356V45.0747Z" fill="url(#paint0_linear)" fill-opacity="0.3"/>
<defs>
<linearGradient id="paint0_linear" x1="109.608" y1="7.17559" x2="-1.77731" y2="16.4928" gradientUnits="userSpaceOnUse">
<stop stop-color="#6B6B6B"/>
<stop offset="1" stop-color="#171717" stop-opacity="0"/>
</linearGradient>
</defs>
</svg>
