<svg width="110" height="123" viewBox="0 0 110 123" fill="none" xmlns="http://www.w3.org/2000/svg">
<path fill-rule="evenodd" clip-rule="evenodd" d="M2.5758 48.9386H0L0 50.2265H2.5758V52.8023H3.86365V50.2265H6.43927V48.9386H3.86365V46.3631H2.5758V48.9386ZM0.000124237 118.483H2.57592V115.907H3.86378V118.483H6.43939V119.771H3.86378V122.346H2.57592V119.771H0.000124237L0.000124237 118.483ZM43.7866 118.483H41.2108V119.771H43.7866V122.346H45.0744V119.771H47.65V118.483H45.0744V115.907H43.7866V118.483ZM82.4224 118.483H84.9982V115.907H86.286V118.483H88.8616V119.771H86.286V122.346H84.9982V119.771H82.4224V118.483ZM20.6057 118.483H23.1815V115.907H24.4693V118.483H27.0449V119.771H24.4693V122.346H23.1815V119.771H20.6057V118.483ZM64.3919 118.483H61.8161V119.771H64.3919V122.346H65.6797V119.771H68.2554V118.483H65.6797V115.907H64.3919V118.483ZM103.028 118.483H105.604V115.907H106.892V118.483H109.467V119.771H106.892V122.346H105.604V119.771H103.028V118.483ZM41.2108 48.9386H43.7866V46.3631H45.0744V48.9386H47.65V50.2265H45.0744V52.8023H43.7866V50.2265H41.2108V48.9386ZM84.9982 48.9386H82.4224V50.2265H84.9982V52.8023H86.286V50.2265H88.8616V48.9386H86.286V46.3631H84.9982V48.9386ZM20.6057 48.9386H23.1815V46.3631H24.4693V48.9386H27.0449V50.2265H24.4693V52.8023H23.1815V50.2265H20.6057V48.9386ZM64.3919 48.9386H61.8161V50.2265H64.3919V52.8023H65.6797V50.2265H68.2554V48.9386H65.6797V46.3631H64.3919V48.9386ZM103.028 48.9386H105.604V46.3631H106.892V48.9386H109.467V50.2265H106.892V52.8023H105.604V50.2265H103.028V48.9386ZM2.5758 95.3014H0L0 96.5893H2.5758L2.5758 99.1651H3.86365L3.86365 96.5893H6.43927V95.3014H3.86365V92.7258H2.5758V95.3014ZM41.2108 95.3014H43.7866V92.7258H45.0744V95.3014H47.65V96.5893H45.0744V99.1651H43.7866V96.5893H41.2108V95.3014ZM84.9982 95.3014H82.4224V96.5893H84.9982V99.1651H86.286V96.5893H88.8616V95.3014H86.286V92.7258H84.9982V95.3014ZM20.6057 95.3014H23.1815L23.1815 92.7258H24.4693L24.4693 95.3014H27.0449V96.5893H24.4693V99.1651H23.1815V96.5893H20.6057V95.3014ZM64.3919 95.3014H61.8161V96.5893H64.3919V99.1651H65.6797V96.5893H68.2554V95.3014H65.6797V92.7258H64.3919V95.3014ZM103.028 95.3014H105.604V92.7258H106.892V95.3014H109.467V96.5893H106.892V99.1651H105.604V96.5893H103.028V95.3014ZM2.5758 25.7572H0L0 27.0451H2.5758V29.6209H3.86365V27.0451H6.43927V25.7572H3.86365L3.86365 23.1817H2.5758L2.5758 25.7572ZM41.2108 25.757H43.7866V23.1814H45.0744V25.757H47.65V27.0448H45.0744V29.6207H43.7866V27.0448H41.2108V25.757ZM84.9982 25.7572H82.4224V27.0451H84.9982V29.6209H86.286V27.0451H88.8616V25.7572H86.286V23.1817H84.9982V25.7572ZM20.6057 25.757H23.1815V23.1814H24.4693V25.757H27.0449V27.0448H24.4693V29.6207H23.1815V27.0448H20.6057V25.757ZM64.3919 25.757H61.8161V27.0448H64.3919V29.6207H65.6797V27.0448H68.2554V25.757H65.6797V23.1814H64.3919V25.757ZM103.028 25.7572H105.604V23.1817H106.892V25.7572H109.467V27.0451H106.892V29.6209H105.604V27.0451H103.028V25.7572ZM2.5758 72.12H0L0 73.4079H2.5758L2.5758 75.9837H3.86365L3.86365 73.4079H6.43927V72.12H3.86365V69.5444H2.5758V72.12ZM41.2108 72.12H43.7866V69.5444H45.0744V72.12H47.65V73.4079H45.0744V75.9837H43.7866V73.4079H41.2108V72.12ZM84.9982 72.12H82.4224V73.4079H84.9982V75.9837H86.286V73.4079H88.8616V72.12H86.286V69.5444H84.9982V72.12ZM20.6057 72.12H23.1815V69.5444H24.4693V72.12H27.0449V73.4079H24.4693V75.9837H23.1815V73.4079H20.6057V72.12ZM64.3919 72.12H61.8161V73.4079H64.3919V75.9837H65.6797V73.4079H68.2554V72.12H65.6797V69.5444H64.3919V72.12ZM103.028 72.12H105.604V69.5444H106.892V72.12H109.467V73.4079H106.892V75.9837H105.604V73.4079H103.028V72.12ZM2.5758 2.57586H0L0 3.86372H2.5758V6.43956H3.86365V3.86372H6.43927V2.57586H3.86365V0.000289917H2.5758V2.57586ZM41.2108 2.57611H43.7866V0.000541687H45.0744V2.57611H47.65V3.86397H45.0744V6.43981H43.7866V3.86397H41.2108V2.57611ZM84.9982 2.57586H82.4224V3.86372H84.9982L84.9982 6.43956H86.286L86.286 3.86372H88.8616V2.57586H86.286V0.000289917H84.9982V2.57586ZM20.6057 2.57557H23.1815V0H24.4693V2.57557H27.0449V3.86343H24.4693V6.43927H23.1815V3.86343H20.6057V2.57557ZM64.3919 2.57611H61.8161V3.86397H64.3919L64.3919 6.43981H65.6797L65.6797 3.86397H68.2554V2.57611H65.6797V0.000541687H64.3919V2.57611ZM103.028 2.57586H105.604V0.000289917H106.892V2.57586H109.467V3.86372H106.892L106.892 6.43956H105.604L105.604 3.86372H103.028V2.57586Z" fill="url(#paint0_linear)" fill-opacity="0.3"/>
<defs>
<linearGradient id="paint0_linear" x1="7.34848" y1="-3.10862" x2="19.2469" y2="124.16" gradientUnits="userSpaceOnUse">
<stop stop-color="#6B6B6B"/>
<stop offset="1" stop-color="#171717" stop-opacity="0"/>
</linearGradient>
</defs>
</svg>
