<svg width="208" height="46" viewBox="0 0 208 46" fill="none" xmlns="http://www.w3.org/2000/svg">
<path fill-rule="evenodd" clip-rule="evenodd" d="M125.134 0C124.305 0 123.634 0.671572 123.634 1.5V2.36356C123.634 3.19199 124.305 3.86356 125.134 3.86356H125.997C126.826 3.86356 127.497 3.19199 127.497 2.36356V1.5C127.497 0.671573 126.826 0 125.997 0H125.134ZM1.50017 0.000124237C0.671742 0.000124237 0.00016902 0.671696 0.00016902 1.50012V2.36368C0.00016902 3.19211 0.671741 3.86368 1.50017 3.86368H2.36373C3.19216 3.86368 3.86373 3.19211 3.86373 2.36369V1.50012C3.86373 0.671697 3.19216 0.000124237 2.36373 0.000124237H1.50017ZM41.2114 1.5C41.2114 0.671572 41.883 0 42.7114 0H43.575C44.4034 0 45.075 0.671573 45.075 1.5V2.36356C45.075 3.19199 44.4034 3.86356 43.575 3.86356H42.7114C41.883 3.86356 41.2114 3.19199 41.2114 2.36356V1.5ZM166.345 0C165.517 0 164.845 0.671572 164.845 1.5V2.36356C164.845 3.19199 165.517 3.86356 166.345 3.86356H167.209C168.037 3.86356 168.709 3.19199 168.709 2.36356V1.5C168.709 0.671573 168.037 0 167.209 0H166.345ZM82.4226 1.5C82.4226 0.671572 83.0942 0 83.9226 0H84.7862C85.6146 0 86.2862 0.671573 86.2862 1.5V2.36356C86.2862 3.19199 85.6146 3.86356 84.7862 3.86356H83.9226C83.0942 3.86356 82.4226 3.19199 82.4226 2.36356V1.5ZM207.557 0C206.728 0 206.057 0.671572 206.057 1.5V2.36356C206.057 3.19199 206.728 3.86356 207.557 3.86356H208.42C209.249 3.86356 209.92 3.19199 209.92 2.36356V1.5C209.92 0.671573 209.249 0 208.42 0H207.557ZM20.6056 1.5C20.6056 0.671572 21.2772 0 22.1056 0H22.9692C23.7976 0 24.4692 0.671573 24.4692 1.5V2.36356C24.4692 3.19199 23.7976 3.86356 22.9692 3.86356H22.1056C21.2772 3.86356 20.6056 3.19199 20.6056 2.36356V1.5ZM145.74 0C144.912 0 144.24 0.671572 144.24 1.5V2.36356C144.24 3.19199 144.912 3.86356 145.74 3.86356H146.604C147.432 3.86356 148.104 3.19199 148.104 2.36356V1.5C148.104 0.671573 147.432 0 146.604 0H145.74ZM61.8168 1.5C61.8168 0.671572 62.4883 0 63.3168 0H64.1803C65.0088 0 65.6803 0.671573 65.6803 1.5V2.36356C65.6803 3.19199 65.0088 3.86356 64.1803 3.86356H63.3168C62.4883 3.86356 61.8168 3.19199 61.8168 2.36356V1.5ZM186.951 0C186.123 0 185.451 0.671572 185.451 1.5V2.36356C185.451 3.19199 186.123 3.86356 186.951 3.86356H187.815C188.643 3.86356 189.315 3.19199 189.315 2.36356V1.5C189.315 0.671573 188.643 0 187.815 0H186.951ZM103.028 1.5C103.028 0.671572 103.7 0 104.528 0H105.392C106.22 0 106.892 0.671573 106.892 1.5V2.36356C106.892 3.19199 106.22 3.86356 105.392 3.86356H104.528C103.7 3.86356 103.028 3.19199 103.028 2.36356V1.5ZM228.162 0C227.334 0 226.662 0.671572 226.662 1.5V2.36356C226.662 3.19199 227.334 3.86356 228.162 3.86356H229.026C229.854 3.86356 230.526 3.19199 230.526 2.36356V1.5C230.526 0.671573 229.854 0 229.026 0H228.162ZM0 42.7112C0 41.8828 0.671573 41.2112 1.5 41.2112H2.36356C3.19199 41.2112 3.86356 41.8828 3.86356 42.7112V43.5747C3.86356 44.4032 3.19199 45.0747 2.36356 45.0747H1.5C0.671572 45.0747 0 44.4032 0 43.5747V42.7112ZM125.134 41.2112C124.305 41.2112 123.634 41.8828 123.634 42.7112V43.5747C123.634 44.4032 124.305 45.0747 125.134 45.0747H125.997C126.826 45.0747 127.497 44.4032 127.497 43.5747V42.7112C127.497 41.8828 126.826 41.2112 125.997 41.2112H125.134ZM41.2114 42.7112C41.2114 41.8828 41.883 41.2112 42.7114 41.2112H43.575C44.4034 41.2112 45.075 41.8828 45.075 42.7112V43.5747C45.075 44.4032 44.4034 45.0747 43.575 45.0747H42.7114C41.883 45.0747 41.2114 44.4032 41.2114 43.5747V42.7112ZM166.345 41.2112C165.517 41.2112 164.845 41.8828 164.845 42.7112V43.5747C164.845 44.4032 165.517 45.0747 166.345 45.0747H167.209C168.037 45.0747 168.709 44.4032 168.709 43.5747V42.7112C168.709 41.8828 168.037 41.2112 167.209 41.2112H166.345ZM82.4226 42.7112C82.4226 41.8828 83.0942 41.2112 83.9226 41.2112H84.7862C85.6146 41.2112 86.2862 41.8828 86.2862 42.7112V43.5747C86.2862 44.4032 85.6146 45.0747 84.7862 45.0747H83.9226C83.0942 45.0747 82.4226 44.4032 82.4226 43.5747V42.7112ZM207.557 41.2112C206.728 41.2112 206.057 41.8828 206.057 42.7112V43.5747C206.057 44.4032 206.728 45.0747 207.557 45.0747H208.42C209.249 45.0747 209.92 44.4032 209.92 43.5747V42.7112C209.92 41.8828 209.249 41.2112 208.42 41.2112H207.557ZM20.6056 42.7112C20.6056 41.8828 21.2772 41.2112 22.1056 41.2112H22.9692C23.7976 41.2112 24.4692 41.8828 24.4692 42.7112V43.5747C24.4692 44.4032 23.7976 45.0747 22.9692 45.0747H22.1056C21.2772 45.0747 20.6056 44.4032 20.6056 43.5747V42.7112ZM145.74 41.2112C144.912 41.2112 144.24 41.8828 144.24 42.7112V43.5747C144.24 44.4032 144.912 45.0747 145.74 45.0747H146.604C147.432 45.0747 148.104 44.4032 148.104 43.5747V42.7112C148.104 41.8828 147.432 41.2112 146.604 41.2112H145.74ZM61.8168 42.7112C61.8168 41.8828 62.4883 41.2112 63.3168 41.2112H64.1803C65.0088 41.2112 65.6803 41.8828 65.6803 42.7112V43.5747C65.6803 44.4032 65.0088 45.0747 64.1803 45.0747H63.3168C62.4883 45.0747 61.8168 44.4032 61.8168 43.5747V42.7112ZM186.951 41.2112C186.123 41.2112 185.451 41.8828 185.451 42.7112V43.5747C185.451 44.4032 186.123 45.0747 186.951 45.0747H187.815C188.643 45.0747 189.315 44.4032 189.315 43.5747V42.7112C189.315 41.8828 188.643 41.2112 187.815 41.2112H186.951ZM103.028 42.7112C103.028 41.8828 103.7 41.2112 104.528 41.2112H105.392C106.22 41.2112 106.892 41.8828 106.892 42.7112V43.5747C106.892 44.4032 106.22 45.0747 105.392 45.0747H104.528C103.7 45.0747 103.028 44.4032 103.028 43.5747V42.7112ZM228.162 41.2112C227.334 41.2112 226.662 41.8828 226.662 42.7112V43.5747C226.662 44.4032 227.334 45.0747 228.162 45.0747H229.026C229.854 45.0747 230.526 44.4032 230.526 43.5747V42.7112C230.526 41.8828 229.854 41.2112 229.026 41.2112H228.162ZM0 22.1059C0 21.2774 0.671573 20.6059 1.5 20.6059H2.36356C3.19199 20.6059 3.86356 21.2774 3.86356 22.1059V22.9694C3.86356 23.7978 3.19199 24.4694 2.36356 24.4694H1.5C0.671572 24.4694 0 23.7978 0 22.9694V22.1059ZM125.134 20.6059C124.305 20.6059 123.634 21.2774 123.634 22.1059V22.9694C123.634 23.7978 124.305 24.4694 125.134 24.4694H125.997C126.826 24.4694 127.497 23.7978 127.497 22.9694V22.1059C127.497 21.2774 126.826 20.6059 125.997 20.6059H125.134ZM41.2114 22.1059C41.2114 21.2774 41.883 20.6059 42.7114 20.6059H43.575C44.4034 20.6059 45.075 21.2774 45.075 22.1059V22.9694C45.075 23.7978 44.4034 24.4694 43.575 24.4694H42.7114C41.883 24.4694 41.2114 23.7978 41.2114 22.9694V22.1059ZM166.345 20.6059C165.517 20.6059 164.845 21.2774 164.845 22.1059V22.9694C164.845 23.7978 165.517 24.4694 166.345 24.4694H167.209C168.037 24.4694 168.709 23.7978 168.709 22.9694V22.1059C168.709 21.2774 168.037 20.6059 167.209 20.6059H166.345ZM82.4226 22.1059C82.4226 21.2774 83.0942 20.6059 83.9226 20.6059H84.7862C85.6146 20.6059 86.2862 21.2774 86.2862 22.1059V22.9694C86.2862 23.7978 85.6146 24.4694 84.7862 24.4694H83.9226C83.0942 24.4694 82.4226 23.7978 82.4226 22.9694V22.1059ZM207.557 20.6059C206.728 20.6059 206.057 21.2774 206.057 22.1059V22.9694C206.057 23.7978 206.728 24.4694 207.557 24.4694H208.42C209.249 24.4694 209.92 23.7978 209.92 22.9694V22.1059C209.92 21.2774 209.249 20.6059 208.42 20.6059H207.557ZM20.6056 22.1059C20.6056 21.2774 21.2772 20.6059 22.1056 20.6059H22.9692C23.7976 20.6059 24.4692 21.2774 24.4692 22.1059V22.9694C24.4692 23.7978 23.7976 24.4694 22.9692 24.4694H22.1056C21.2772 24.4694 20.6056 23.7978 20.6056 22.9694V22.1059ZM145.74 20.6059C144.912 20.6059 144.24 21.2774 144.24 22.1059V22.9694C144.24 23.7978 144.912 24.4694 145.74 24.4694H146.604C147.432 24.4694 148.104 23.7978 148.104 22.9694V22.1059C148.104 21.2774 147.432 20.6059 146.604 20.6059H145.74ZM61.8168 22.1059C61.8168 21.2774 62.4883 20.6059 63.3168 20.6059H64.1803C65.0088 20.6059 65.6803 21.2774 65.6803 22.1059V22.9694C65.6803 23.7978 65.0088 24.4694 64.1803 24.4694H63.3168C62.4883 24.4694 61.8168 23.7978 61.8168 22.9694V22.1059ZM186.951 20.6059C186.123 20.6059 185.451 21.2774 185.451 22.1059V22.9694C185.451 23.7978 186.123 24.4694 186.951 24.4694H187.815C188.643 24.4694 189.315 23.7978 189.315 22.9694V22.1059C189.315 21.2774 188.643 20.6059 187.815 20.6059H186.951ZM103.028 22.1059C103.028 21.2774 103.7 20.6059 104.528 20.6059H105.392C106.22 20.6059 106.892 21.2774 106.892 22.1059V22.9694C106.892 23.7978 106.22 24.4694 105.392 24.4694H104.528C103.7 24.4694 103.028 23.7978 103.028 22.9694V22.1059ZM228.162 20.6059C227.334 20.6059 226.662 21.2774 226.662 22.1059V22.9694C226.662 23.7978 227.334 24.4694 228.162 24.4694H229.026C229.854 24.4694 230.526 23.7978 230.526 22.9694V22.1059C230.526 21.2774 229.854 20.6059 229.026 20.6059H228.162Z" fill="url(#paint0_linear)" fill-opacity="0.3"/>
<defs>
<linearGradient id="paint0_linear" x1="236.383" y1="3.02584" x2="31.9085" y2="90.501" gradientUnits="userSpaceOnUse">
<stop stop-color="#4B4B4B"/>
<stop offset="1" stop-color="#B8B8B8"/>
</linearGradient>
</defs>
</svg>
