<svg width="304" height="82" viewBox="0 0 304 82" fill="none" xmlns="http://www.w3.org/2000/svg">
<path fill-rule="evenodd" clip-rule="evenodd" d="M74.2384 73.6576C73.915 74.4659 73.2038 74.3404 72.2064 74.34C51.2671 74.3289 30.191 74.2583 9.27972 74.3404C8.30462 74.3444 7.7627 74.1893 7.70997 73.2287C7.61933 71.5689 7.70902 66.9432 7.70891 65.0807C7.70867 64.1856 7.71056 63.2902 7.70867 62.3951C7.70689 61.4775 7.68047 60.6655 8.61125 60.5276C9.10768 60.4541 13.7013 60.4716 14 60.577C14.7661 60.8478 14.6889 61.6753 14.6883 62.5684C14.688 63.4635 14.6886 64.3588 14.6883 65.254C14.6883 67.775 14.9101 67.4205 18.0209 67.4205L64.5157 67.4197C67.8066 67.4202 67.3413 67.8243 67.3219 62.0469C67.315 60.0808 68.326 60.5104 71.1577 60.5104C74.1975 60.5104 74.3044 60.2114 74.3044 62.8282C74.3041 64.1052 74.3995 73.2553 74.2385 73.6576H74.2384ZM8.42962 7.70766C8.94157 7.52362 17.8882 7.64224 19.2444 7.64224C25.8128 7.64224 73.1965 7.4932 73.7467 7.76121C74.4775 8.11744 74.3043 9.11234 74.3043 9.98064V18.0376C74.3043 21.182 74.6628 21.461 72.2064 21.46C71.3035 21.4596 70.4002 21.4598 69.4973 21.4598C68.5895 21.46 67.7004 21.5538 67.4063 20.8046C67.1305 20.1028 67.4541 16.5418 67.3105 15.4408C67.1919 14.5305 66.3784 14.5486 65.4771 14.5507C64.5739 14.5528 63.6707 14.5506 62.7677 14.5507C47.3248 14.5539 31.6886 14.6383 16.2724 14.5488C15.3105 14.5433 14.7177 14.7188 14.6862 15.6933C14.5009 21.4036 15.5204 21.4587 12.2526 21.4587C11.3499 21.4587 10.4464 21.4561 9.54345 21.4589C8.61196 21.4616 7.84634 21.4423 7.72514 20.5404C7.63379 19.8621 7.7089 18.6038 7.70902 17.8645L7.70891 9.72073C7.70808 8.66545 7.55559 8.02183 8.42974 7.70766H8.42962ZM0.885156 0.0660977C-0.271684 0.324602 0.0374307 1.77451 0.0376677 2.9632C0.041933 28.7597 0.119064 54.6377 0.0361275 80.4174C0.0339948 81.1273 0.0924055 81.4959 0.561706 81.7856C1.14569 82.1459 6.8863 81.9432 8.05759 81.9432C32.1568 81.9428 56.3339 81.8721 80.4239 81.9434C82.1482 81.9483 81.9726 81.2441 81.9724 79.722L81.9729 53.2979C81.9782 51.487 81.6347 51.5214 79.8972 51.5227L60.8449 51.5223C58.9639 51.5174 58.9649 51.7566 58.9659 53.5583C58.9669 54.829 58.9662 56.0995 58.9662 57.3702C58.9662 58.4673 59.2551 60.125 58.2674 60.447C57.707 60.6297 26.6693 60.5099 24.0512 60.5099C22.944 60.5097 21.1745 60.7868 20.739 59.9593C20.4629 59.4344 20.611 38.9418 20.611 37.3576C20.611 35.5213 20.4911 22.8753 20.6596 22.2182C20.927 21.1767 22.4307 21.4602 23.6143 21.4602L54.1156 21.4598C59.1871 21.4596 58.966 20.9307 58.9663 24.1024C58.9664 25.3731 58.9664 26.6437 58.9663 27.9143C58.966 30.8994 58.6491 30.449 64.0787 30.4481H79.3729C82.4553 30.4481 81.9725 30.7386 81.9725 25.4886V2.7902C81.9728 -0.546162 82.1436 0.0395543 77.1882 0.0395543L4.64915 0.0381449C3.88365 0.0381449 1.44142 -0.0579281 0.885275 0.0663326L0.885156 0.0660977ZM44.3705 30.9625C43.947 31.2189 44.0166 31.3234 43.6442 32.0868L41.8394 35.9289C40.2615 39.0903 38.6378 42.8827 37.0585 46.0927C36.8336 46.5503 35.892 48.2467 36.0953 48.7172C36.2514 49.0778 38.1325 50.0565 38.6647 49.7686C39.0351 49.5682 40.7802 45.5046 41.1402 44.7643L45.9201 34.602C47.0503 32.1453 47.541 32.0248 45.7564 31.2626C45.2926 31.0643 44.8378 30.6792 44.3705 30.9625ZM76.1769 33.6267C75.7639 33.8139 75.6983 33.9372 75.6874 34.4926C75.6138 38.1923 75.6913 42.5873 75.6913 46.3673C75.6913 47.264 75.4607 48.3107 76.333 48.4081C79.3675 48.7471 78.8367 47.99 78.8256 45.6741C78.8194 44.4167 78.8163 44.4491 79.8752 44.0928C82.0475 43.3614 82.6173 40.6733 81.1494 39.0623C80.7132 38.5837 80.2966 38.3973 79.4865 38.1136C77.9841 37.5872 79.4824 34.4473 78.5867 33.7177C78.3008 33.4849 76.5473 33.4586 76.1769 33.6266V33.6267ZM51.1222 41.256C51.0216 41.5647 49.2391 43.4358 49.0516 43.5983C48.6317 43.9633 48.4253 44.3702 48.0103 44.7337C45.8344 46.6402 48.1529 46.1836 49.3086 46.1834C49.8497 46.1834 51.1852 46.3205 51.5596 46.0851C51.7156 45.9866 51.9533 45.6506 52.1027 45.4957C52.3631 45.2258 52.4779 45.1509 52.6649 44.9315C52.838 44.7286 53.0213 44.5067 53.1975 44.3284L54.893 42.5483C55.0641 42.3424 55.2374 42.1462 55.4308 41.9511C56.3696 41.005 56.0247 41.2807 54.4022 39.4113L51.589 36.396C51.2762 36.14 47.378 36.2315 47.2207 36.3408C46.7437 36.673 47.7479 37.4308 48.3865 38.1876C48.581 38.4182 48.7785 38.555 48.9895 38.7982C49.3896 39.2589 51.0235 40.8661 51.1222 41.256V41.256ZM30.3436 46.1834C31.4171 46.1838 33.3268 46.2341 34.3051 46.1381C34.4624 45.6101 34.2941 45.6525 33.5212 44.7759C33.3183 44.5458 33.1462 44.4314 32.9506 44.2182L31.8596 43.0478C31.55 42.7231 30.2918 41.4541 30.3494 41.1694C30.4554 40.9718 31.1733 40.1848 31.345 39.9926L33.9952 37.1659C34.1975 36.9448 34.3943 36.8457 34.3485 36.4035C33.8672 36.1132 31.0769 36.2628 30.3437 36.2628C29.8078 36.2631 29.6257 36.6605 28.9895 37.3112C28.7896 37.5153 28.6154 37.7427 28.4269 37.9723C28.2357 38.2053 28.0356 38.3493 27.8233 38.5834C27.4796 38.9626 25.5467 40.9827 25.5254 41.18C25.491 41.4966 27.3516 43.3992 27.7793 43.7967L29.5268 45.7056C29.7902 46.0156 29.7724 46.1832 30.3438 46.1832L30.3436 46.1834ZM71.1579 34.4983V47.4934C71.1579 48.6338 71.7531 48.4139 73.4299 48.4137C74.1243 48.4137 74.3035 48.1844 74.3035 47.4934V34.4983C74.3035 33.3333 73.4377 33.5562 72.0316 33.556C71.3367 33.556 71.1579 33.8335 71.1579 34.4983V34.4983ZM66.6349 34.4116V47.5802C66.6349 48.6376 67.4701 48.4141 68.8853 48.4141C69.5886 48.4136 69.7701 48.2066 69.7701 47.4935V34.4984C69.7701 33.3259 68.9403 33.5561 67.4871 33.5561C66.8364 33.5561 66.635 33.7677 66.635 34.4117L66.6349 34.4116Z" fill="url(#paint0_linear)"/>
<path fill-rule="evenodd" clip-rule="evenodd" d="M262.04 45.9706L264.743 39.8074H264.779L267.518 45.9706H262.04ZM253.318 54.9351H257.283C258.004 54.9351 258.4 54.4868 258.58 54.0387L259.878 51.0506H269.68L270.978 54.0013C271.302 54.7111 271.59 54.9352 272.239 54.9352H276.24C276.78 54.9352 277.068 54.4496 276.852 53.964L265.572 28.826C265.464 28.6019 265.211 28.4151 264.959 28.4151H264.599C264.347 28.4151 264.094 28.6019 263.986 28.826L252.706 53.964C252.49 54.4495 252.778 54.9352 253.319 54.9352L253.318 54.9351ZM242.11 54.8977C242.218 55.1217 242.434 55.3085 242.723 55.3085H243.083C243.371 55.3085 243.588 55.1217 243.696 54.8977L255.012 29.7596C255.228 29.2742 254.94 28.7884 254.399 28.7884H249.606C249.318 28.7884 249.066 29.0126 248.994 29.1994L243.047 42.8329H242.831L236.884 29.1994C236.812 29.0126 236.56 28.7884 236.272 28.7884H231.479C230.938 28.7884 230.65 29.274 230.866 29.7596L242.11 54.8977H242.11ZM222.216 54.2253C222.216 54.5988 222.541 54.9351 222.901 54.9351H227.226C227.586 54.9351 227.911 54.5989 227.911 54.2253V29.4982C227.911 29.1247 227.586 28.7884 227.226 28.7884H222.901C222.541 28.7884 222.216 29.1246 222.216 29.4982V54.2253ZM207.08 54.2253C207.08 54.5988 207.404 54.9351 207.764 54.9351H212.089C212.45 54.9351 212.774 54.5989 212.774 54.2253V34.2793H217.928C218.324 34.2793 218.612 33.9432 218.612 33.5696V29.4982C218.612 29.1247 218.324 28.7884 217.928 28.7884H201.926C201.53 28.7884 201.241 29.1246 201.241 29.4982V33.5696C201.241 33.9431 201.53 34.2793 201.926 34.2793H207.08V54.2253ZM187.366 45.9706L190.069 39.8074H190.105L192.844 45.9706H187.366ZM178.645 54.9351H182.609C183.33 54.9351 183.726 54.4868 183.906 54.0387L185.204 51.0506H195.007L196.304 54.0013C196.628 54.7111 196.917 54.9352 197.565 54.9352H201.566C202.106 54.9352 202.395 54.4496 202.178 53.964L190.898 28.826C190.79 28.6019 190.538 28.4151 190.285 28.4151H189.925C189.673 28.4151 189.42 28.6019 189.312 28.826L178.032 53.964C177.816 54.4495 178.104 54.9352 178.645 54.9352L178.645 54.9351ZM169.382 54.2253C169.382 54.5988 169.707 54.9351 170.067 54.9351H174.392C174.752 54.9351 175.077 54.5989 175.077 54.2253V29.4982C175.077 29.1247 174.752 28.7884 174.392 28.7884H170.067C169.707 28.7884 169.382 29.1246 169.382 29.4982V54.2253ZM150.894 39.9941V34.1299H156.228C157.706 34.1299 158.967 35.4061 158.967 36.9873C158.967 38.5685 157.706 39.9941 156.228 39.9941H150.894V39.9941ZM145.236 54.2253C145.236 54.5988 145.524 54.9351 145.921 54.9351H150.21C150.57 54.9351 150.894 54.5989 150.894 54.2253V44.7378H153.381L158.174 54.5988C158.246 54.7483 158.463 54.935 158.751 54.935H163.544C164.157 54.935 164.409 54.3373 164.157 53.8518L159.219 44.4017C162.355 43.0943 164.553 40.3302 164.553 36.8751C164.553 32.4116 161.021 28.7883 156.697 28.7883H145.921C145.524 28.7883 145.236 29.1244 145.236 29.498V54.2252L145.236 54.2253ZM119.144 41.8991C119.144 49.3695 124.946 55.3085 132.154 55.3085C135.361 55.3085 138.461 54.1507 140.911 51.6855C141.164 51.424 141.2 50.9384 140.947 50.677L138.136 47.5768C137.92 47.3154 137.452 47.3154 137.199 47.5394C135.902 48.6974 134.064 49.3323 132.37 49.3323C128.298 49.3323 125.27 45.8959 125.27 41.7498C125.27 37.5664 128.262 34.0552 132.334 34.0552C134.1 34.0552 135.866 34.7276 137.199 35.9602C137.452 36.2217 137.848 36.2217 138.1 35.9602L140.911 32.9347C141.2 32.6359 141.2 32.1877 140.875 31.8889C138.425 29.5731 135.758 28.4151 132.154 28.4151C124.946 28.4151 119.144 34.4288 119.144 41.8993V41.8991ZM293.067 33.6968C293.145 33.6562 293.21 33.5753 293.21 33.4671V33.3322C293.21 33.2241 293.145 33.143 293.067 33.1025L284.297 28.862C284.128 28.7809 283.958 28.889 283.958 29.0915V30.8878C283.958 30.9959 284.037 31.0904 284.102 31.1173L288.858 33.3457V33.4268L284.102 35.6552C284.037 35.6821 283.958 35.7767 283.958 35.8847V37.681C283.958 37.8835 284.128 37.9916 284.297 37.9105L293.067 33.697V33.6968ZM292.832 44.6088C292.962 44.6088 293.08 44.5007 293.08 44.3521V38.7611C293.08 38.6125 292.962 38.5044 292.832 38.5044H291.412C291.281 38.5044 291.164 38.6125 291.164 38.7611V42.5019H289.405V39.4229C289.405 39.2878 289.301 39.1662 289.157 39.1662H287.737C287.607 39.1662 287.489 39.2877 287.489 39.4229V42.5019H285.874V38.7611C285.874 38.6125 285.756 38.5044 285.626 38.5044H284.206C284.076 38.5044 283.958 38.6125 283.958 38.7611V44.3521C283.958 44.5007 284.075 44.6088 284.206 44.6088H292.832H292.832ZM291.151 52.4281H285.874V51.1316C285.874 49.6056 287.034 48.4981 288.506 48.4981C289.991 48.4981 291.151 49.6056 291.151 51.1316V52.4281ZM292.832 54.535C292.962 54.535 293.08 54.4269 293.08 54.2919V50.9967C293.08 48.3902 291.034 46.2563 288.506 46.2563C286.004 46.2563 283.958 48.3901 283.958 50.9967V54.2919C283.958 54.4269 284.076 54.535 284.206 54.535H292.832V54.535ZM106 19H304V65H106V19V19Z" fill="url(#paint1_linear)"/>
<defs>
<linearGradient id="paint0_linear" x1="0.0696573" y1="41.6905" x2="82" y2="40.9878" gradientUnits="userSpaceOnUse">
<stop stop-color="#FF7D34"/>
<stop offset="1" stop-color="#FE5B29"/>
</linearGradient>
<linearGradient id="paint1_linear" x1="205" y1="19" x2="205" y2="65" gradientUnits="userSpaceOnUse">
<stop stop-color="#FE5B29"/>
<stop offset="1" stop-color="#FF7D34"/>
</linearGradient>
</defs>
</svg>
